<svg xmlns="http://www.w3.org/2000/svg" viewBox="0 0 1018.08 209.39"><defs><style>.cls-1{fill:#498781;}.cls-2{fill:#95aba0;}</style></defs><g id="Layer_2" data-name="Layer 2"><g id="Layer_1-2" data-name="Layer 1"><path class="cls-1" d="M11.1,83.13c2.52-3.15,3.66-8.58,4-14.89.25-3.28.5-10.34.5-15v-10c0-18-.25-28-3.78-33.05S3.28,4.16,0,3.53L.13,2c5,0,14.38.38,21.57.38C28.63,2.4,39.36,2.14,45,2l.13,1.51c-8.58,1.89-12.24,5.8-13.62,10.72-1.27,4.42-1.39,13.12-1.39,25.23v9.21c0,7.57,0,16.15.63,23.46s2.4,10.35,5.8,12.62c3,2,7.07,2.77,11.36,2.77a45.52,45.52,0,0,0,14.63-7.69,49.24,49.24,0,0,0,12-14l1.64.25c-1.51,8.58-2.65,17.91-4,24.22-1.76.13-6.68.25-9.2.25-13.63,0-30.28-.25-41-.25-7.06,0-16.65.13-21.19.25L.63,89.06C3.66,88.55,8.58,86.28,11.1,83.13Z"/><path class="cls-1" d="M87.54,85.15c3.15-2.4,4.79-6.82,5.42-10.47.64-3.41,1.27-11,1.27-30s-.13-29.27-3.79-34.44S81.86,4.16,78.58,3.53L78.71,2c5.05,0,14.38.38,21.57.38,6.94,0,15.77-.26,21.45-.38l.12,1.51C115,5.05,111.51,9,110.12,13.88c-1.26,4.41-1.39,13.62-1.39,30.27,0,24.09.51,32.8,3.66,38.22,1.89,3.16,4.79,5.17,9.34,6.69l-.13,1.51c-5.17-.12-14-.38-20.18-.38-7.07,0-17.92.26-22.2.38l-.13-1.51A23.11,23.11,0,0,0,87.54,85.15Z"/><path class="cls-1" d="M137,83.13c2.52-3.15,3.66-8.58,4-14.89.26-3.28.51-10.34.51-15v-10c0-18-.25-28-3.78-33.05s-8.58-6.06-11.86-6.69L126,2c5,0,14.38.38,21.57.38,6.94,0,17.66-.26,23.34-.38l.13,1.51c-8.58,1.89-12.24,5.8-13.63,10.72C156.16,18.67,156,27.37,156,39.48v9.21c0,7.57,0,16.15.63,23.46s2.39,10.35,5.8,12.62c3,2,7.06,2.77,11.35,2.77a45.46,45.46,0,0,0,14.64-7.69,49.24,49.24,0,0,0,12-14l1.64.25c-1.51,8.58-2.65,17.91-4,24.22-1.76.13-6.68.25-9.21.25-13.62,0-30.27-.25-41-.25-7.07,0-16.65.13-21.2.25l-.12-1.51C129.55,88.55,134.47,86.28,137,83.13Z"/><path class="cls-1" d="M215.57,83.13c2.53-3.15,3.66-8.58,4-14.89.25-3.28.5-10.34.5-15v-10c0-18-.25-28-3.78-33.05s-8.58-6.06-11.86-6.69L204.6,2c5,0,14.38.38,21.57.38,6.94,0,17.66-.26,23.34-.38l.12,1.51C241.05,5.42,237.4,9.33,236,14.25c-1.26,4.42-1.39,13.12-1.39,25.23v9.21c0,7.57,0,16.15.63,23.46s2.4,10.35,5.8,12.62c3,2,7.07,2.77,11.36,2.77A45.41,45.41,0,0,0,267,79.85a49.08,49.08,0,0,0,12-14l1.64.25c-1.51,8.58-2.65,17.91-4,24.22-1.77.13-6.69.25-9.21.25-13.63,0-30.28-.25-41-.25-7.06,0-16.65.13-21.19.25l-.13-1.51C208.13,88.55,213.05,86.28,215.57,83.13Z"/><path class="cls-1" d="M292,85.15c3.16-2.4,4.8-6.82,5.43-10.47.63-3.41,1.26-11,1.26-30s-.13-29.27-3.79-34.44-8.57-6.06-11.85-6.69L283.18,2c5.05,0,14.38.38,21.57.38,6.94,0,15.77-.26,21.45-.38l.12,1.51C319.51,5.05,316,9,314.59,13.88c-1.26,4.41-1.38,13.62-1.38,30.27,0,24.09.5,32.8,3.65,38.22,1.9,3.16,4.8,5.17,9.34,6.69l-.13,1.51c-5.17-.12-14-.38-20.18-.38-7.07,0-17.91.26-22.2.38l-.13-1.51A23.11,23.11,0,0,0,292,85.15Z"/><path class="cls-1" d="M332,85.15a35.1,35.1,0,0,0,6.56-8c3.91-5.93,10.72-19.17,18-35.07l12.36-27c1.89-4.8,4.16-11,5.55-15L376.4,0c3.91,9.21,7.82,18.17,11.86,27.12C396,44.4,405.92,66.35,411.6,75.43c3.91,6.31,8.7,12,14.25,13.5l-.12,1.64c-2.28,0-12.37-.25-19.94-.25-5,0-14,.25-20.81.25l-.13-1.51c4.67-1.14,9.34-4.17,10.35-8.45-.13-3-1-6.19-2.52-10.35s-3.41-8.2-5.3-12.49c-4.67-.12-10.09-.12-16.15-.12-6.31,0-12.36,0-16.9.12-2.53,6.94-3.66,12.62-3.66,17.16a14.5,14.5,0,0,0,4,10.47,16.14,16.14,0,0,0,6.05,3.66l-.13,1.51c-5.17,0-14-.25-19.93-.25-4.28,0-10.84.13-14.63.25l-.13-1.51A24.93,24.93,0,0,0,332,85.15Zm53.61-31.29c-4.92-11.1-9.59-21.19-14.88-32.42h-.38L360.13,43.65c-1.77,3.78-3.28,7.31-4.42,10.21,3.92.26,10.35.26,15.52.26S381.2,54.12,385.61,53.86Z"/><path class="cls-1" d="M431.4,83.25c2.65-3.15,5.3-7.82,6.18-18.79s.88-22.2.88-35.32c0-10.35-3.4-16.78-7.57-20.31a24.68,24.68,0,0,0-10.72-5.3L420.3,2c3.91.12,9.08.25,13.75.25,4.29,0,7.44-.25,9.58-.25a9.92,9.92,0,0,1,2.91.38c17.66,22,37.59,43.39,57.26,65.09a159.29,159.29,0,0,0,.64-16.28c0-8.2-.26-12.74-.51-17.4-.38-7.82-2.52-15.9-4.92-20.19A21.12,21.12,0,0,0,486,3.53L486.14,2c4.55,0,13.63.38,19.3.38,5.93,0,14.39-.26,18-.38l.13,1.51c-4.29,1.26-7.7,4.67-9.46,7.07a26.17,26.17,0,0,0-3.91,9.08,72.37,72.37,0,0,0-1.64,13.5c-.25,3.53-.25,11.6-.25,20.43V72.15c0,6.94.25,14,.63,20.06l-2.4.38C486.14,68.5,461.8,40.74,443.26,20.81h-.38c-.38,5.18-.51,11.23-.51,15.27,0,6.05.13,13.12.38,20.94.51,17.4,3.28,22.45,6.81,26.11a23.5,23.5,0,0,0,10.85,5.93l-.13,1.51c-2.52,0-13.37-.38-20-.38-5.68,0-13.63.38-16.65.38l-.13-1.51A18.73,18.73,0,0,0,431.4,83.25Z"/><path class="cls-1" d="M551.36,85.15a35.36,35.36,0,0,0,6.56-8c3.91-5.93,10.72-19.17,18-35.07l12.36-27c1.89-4.8,4.16-11,5.55-15L595.76,0c3.91,9.21,7.82,18.17,11.86,27.12C615.31,44.4,625.28,66.35,631,75.43c3.91,6.31,8.7,12,14.25,13.5l-.13,1.64c-2.27,0-12.36-.25-19.93-.25-5,0-14,.25-20.81.25l-.13-1.51c4.67-1.14,9.34-4.17,10.35-8.45-.13-3-1-6.19-2.53-10.35s-3.4-8.2-5.29-12.49c-4.67-.12-10.1-.12-16.15-.12-6.31,0-12.36,0-16.9.12C571.16,64.71,570,70.39,570,74.93a14.54,14.54,0,0,0,4,10.47,16.17,16.17,0,0,0,6.06,3.66L580,90.57c-5.17,0-14-.25-19.93-.25-4.29,0-10.85.13-14.63.25l-.13-1.51A24.93,24.93,0,0,0,551.36,85.15ZM605,53.86c-4.92-11.1-9.59-21.19-14.89-32.42h-.37L579.49,43.65c-1.77,3.78-3.28,7.31-4.42,10.21,3.91.26,10.35.26,15.52.26S600.55,54.12,605,53.86Z"/><path class="cls-1" d="M653.28,83.13c2.52-3.15,3.66-8.58,4-14.89.25-3.28.5-10.34.5-15v-10c0-18-.25-28-3.78-33.05s-8.58-6.06-11.86-6.69L642.3,2c5.05,0,14.39.38,21.58.38,6.93,0,17.66-.26,23.33-.38l.13,1.51c-8.58,1.89-12.24,5.8-13.63,10.72-1.26,4.42-1.38,13.12-1.38,25.23v9.21c0,7.57,0,16.15.63,23.46s2.39,10.35,5.8,12.62c3,2,7.07,2.77,11.35,2.77a45.46,45.46,0,0,0,14.64-7.69,49.24,49.24,0,0,0,12-14l1.64.25c-1.51,8.58-2.65,17.91-4,24.22-1.76.13-6.68.25-9.21.25-13.62,0-30.27-.25-41-.25-7.07,0-16.65.13-21.19.25l-.13-1.51C645.84,88.55,650.76,86.28,653.28,83.13Z"/><path class="cls-1" d="M742.71,90.19c-5,0-15,.26-21.19.38l-.13-1.51C729.21,87.17,733,83,734.64,77s1.76-21.57,1.76-31.41-.25-18.54-.75-25.1S733.5,10.22,730.1,7.57s-8.33-3.66-10.6-4L719.63,2c4.29.25,14.88.38,20.31.38,4.66,0,14-.38,20.43-.38,10.72,0,20.19.88,27.38,6.18,5.8,4.29,7.69,8.7,7.69,15,0,4.79-2,8.45-4.92,11.61a38.06,38.06,0,0,1-12.74,8.45A28.8,28.8,0,0,1,792,48.57,18.57,18.57,0,0,1,799.86,64a24.27,24.27,0,0,1-9.34,19.29c-6.18,4.8-14.88,7.45-24.6,7.45C761.13,90.7,749.65,90.19,742.71,90.19Zm30.91-48.06c4.16-4.16,6-9.46,6-15.64a21.4,21.4,0,0,0-11-18.42A25.09,25.09,0,0,0,759,4.92a22.88,22.88,0,0,0-6.18.76c-.25.75-.75,2.9-1.13,8.57q-.57,6.43-.76,28A56,56,0,0,0,763,43.39,38.42,38.42,0,0,0,773.62,42.13Zm3.91,40.12c3.53-3.54,5.8-9.59,5.8-15.52s-1.89-10.6-5.55-13.88a24,24,0,0,0-14.25-6.05,119.75,119.75,0,0,1-12.62-.63V57.65A121.52,121.52,0,0,0,752.3,77c.76,4.29,1.89,5.42,3.41,6.94,2.27,2.27,5.92,3.53,9.71,3.65A19,19,0,0,0,777.53,82.25Z"/><path class="cls-1" d="M805.15,85.15a35.1,35.1,0,0,0,6.56-8c3.91-5.93,10.72-19.17,18-35.07l12.36-27c1.89-4.8,4.16-11,5.55-15L849.55,0c3.91,9.21,7.83,18.17,11.86,27.12,7.7,17.28,17.66,39.23,23.34,48.31,3.91,6.31,8.7,12,14.25,13.5l-.12,1.64c-2.27,0-12.37-.25-19.93-.25-5.05,0-14,.25-20.82.25L858,89.06c4.66-1.14,9.33-4.17,10.34-8.45-.13-3-1-6.19-2.52-10.35s-3.41-8.2-5.3-12.49c-4.67-.12-10.09-.12-16.15-.12-6.3,0-12.36,0-16.9.12-2.52,6.94-3.66,12.62-3.66,17.16a14.5,14.5,0,0,0,4,10.47,16.22,16.22,0,0,0,6,3.66l-.12,1.51c-5.18,0-14-.25-19.93-.25-4.29,0-10.85.13-14.64.25l-.12-1.51A25.1,25.1,0,0,0,805.15,85.15Zm53.61-31.29c-4.92-11.1-9.58-21.19-14.88-32.42h-.38L833.28,43.65c-1.76,3.78-3.28,7.31-4.41,10.21,3.91.26,10.34.26,15.51.26S854.35,54.12,858.76,53.86Z"/><path class="cls-1" d="M926.25,46.42c8.2-13.88,16.14-27.75,22.58-40.62-1.14-.12-3.54-.25-6.56-.25A87.37,87.37,0,0,0,929,6.31a40.58,40.58,0,0,0-12.23,6.56,55.45,55.45,0,0,0-11.61,13.24l-1.64-.25c1.14-8.2,2.4-17.16,3.53-23.46A102.61,102.61,0,0,1,918.55,2C931,2,944,2.4,952.36,2.4c5.55,0,11.73-.13,16.78-.13l.12,1.51c-9.33,13.5-20.81,32.68-29.89,47.94-8.33,14-14.26,24.34-19.81,34.69a98.66,98.66,0,0,0,12,.76c4.8,0,10.73,0,14.51-.76a45.82,45.82,0,0,0,11.86-6.81,51.79,51.79,0,0,0,11.6-13.75l1.64.25c-1.51,7.82-2.27,16.27-4,24.22-1.77.13-7.7.25-13.12.25-6.31,0-17.41-.12-27.63-.12h-8.58c-5.29,0-14.25,0-18.41.12l-.13-1.39C908.59,75.69,917.67,60.93,926.25,46.42Z"/><path class="cls-1" d="M983.77,85.15c3.15-2.4,4.79-6.82,5.42-10.47.63-3.41,1.26-11,1.26-30s-.12-29.27-3.78-34.44-8.58-6.06-11.86-6.69L974.94,2c5,0,14.38.38,21.57.38,6.93,0,15.76-.26,21.44-.38l.13,1.51c-6.81,1.52-10.35,5.43-11.73,10.35-1.27,4.41-1.39,13.62-1.39,30.27,0,24.09.5,32.8,3.66,38.22,1.89,3.16,4.79,5.17,9.33,6.69l-.12,1.51c-5.18-.12-14-.38-20.19-.38-7.06,0-17.91.26-22.2.38l-.13-1.51A23.16,23.16,0,0,0,983.77,85.15Z"/><path class="cls-2" d="M11.1,199.93c2.52-3.16,3.66-8.58,4-14.89.25-3.28.5-10.34.5-15v-10c0-18-.25-28-3.78-33S3.28,121,0,120.33l.13-1.52c5,0,14.38.38,21.57.38,6.93,0,17.66-.25,23.33-.38l.13,1.52c-8.58,1.89-12.24,5.8-13.62,10.72-1.27,4.42-1.39,13.12-1.39,25.23v9.21c0,7.57,0,16.14.63,23.46s2.4,10.34,5.8,12.61c3,2,7.07,2.78,11.36,2.78a45.71,45.71,0,0,0,14.63-7.69,49.14,49.14,0,0,0,12-14l1.64.26c-1.51,8.57-2.65,17.91-4,24.22-1.76.12-6.68.25-9.2.25-13.63,0-30.28-.25-41-.25-7.06,0-16.65.12-21.19.25l-.13-1.52C3.66,205.35,8.58,203.08,11.1,199.93Z"/><path class="cls-2" d="M87.54,201.94c3.15-2.39,4.79-6.81,5.42-10.47.64-3.4,1.27-11,1.27-30S94.1,132.19,90.44,127s-8.58-6.05-11.86-6.68l.13-1.52c5.05,0,14.38.38,21.57.38,6.94,0,15.77-.25,21.45-.38l.12,1.52c-6.81,1.51-10.34,5.42-11.73,10.34-1.26,4.42-1.39,13.63-1.39,30.28,0,24.09.51,32.79,3.66,38.22,1.89,3.15,4.79,5.17,9.34,6.68l-.13,1.52c-5.17-.13-14-.38-20.18-.38-7.07,0-17.92.25-22.2.38l-.13-1.52A22.78,22.78,0,0,0,87.54,201.94Z"/><path class="cls-2" d="M137,199.93c2.52-3.16,3.66-8.58,4-14.89.26-3.28.51-10.34.51-15v-10c0-18-.25-28-3.78-33s-8.58-6.05-11.86-6.68l.12-1.52c5,0,14.38.38,21.57.38,6.94,0,17.66-.25,23.34-.38l.13,1.52c-8.58,1.89-12.24,5.8-13.63,10.72-1.26,4.42-1.38,13.12-1.38,25.23v9.21c0,7.57,0,16.14.63,23.46s2.39,10.34,5.8,12.61c3,2,7.06,2.78,11.35,2.78a45.66,45.66,0,0,0,14.64-7.69,49.14,49.14,0,0,0,12-14l1.64.26c-1.51,8.57-2.65,17.91-4,24.22-1.76.12-6.68.25-9.21.25-13.62,0-30.27-.25-41-.25-7.07,0-16.65.12-21.2.25l-.12-1.52C129.55,205.35,134.47,203.08,137,199.93Z"/><path class="cls-2" d="M215.57,199.93c2.53-3.16,3.66-8.58,4-14.89.25-3.28.5-10.34.5-15v-10c0-18-.25-28-3.78-33s-8.58-6.05-11.86-6.68l.13-1.52c5,0,14.38.38,21.57.38,6.94,0,17.66-.25,23.34-.38l.12,1.52c-8.58,1.89-12.23,5.8-13.62,10.72-1.26,4.42-1.39,13.12-1.39,25.23v9.21c0,7.57,0,16.14.63,23.46s2.4,10.34,5.8,12.61c3,2,7.07,2.78,11.36,2.78A45.61,45.61,0,0,0,267,196.65a49,49,0,0,0,12-14l1.64.26c-1.51,8.57-2.65,17.91-4,24.22-1.77.12-6.69.25-9.21.25-13.63,0-30.28-.25-41-.25-7.06,0-16.65.12-21.19.25l-.13-1.52C208.13,205.35,213.05,203.08,215.57,199.93Z"/><path class="cls-2" d="M292,201.94c3.16-2.39,4.8-6.81,5.43-10.47.63-3.4,1.26-11,1.26-30s-.13-29.26-3.79-34.44-8.57-6.05-11.85-6.68l.12-1.52c5.05,0,14.38.38,21.57.38,6.94,0,15.77-.25,21.45-.38l.12,1.52c-6.81,1.51-10.34,5.42-11.73,10.34-1.26,4.42-1.38,13.63-1.38,30.28,0,24.09.5,32.79,3.65,38.22,1.9,3.15,4.8,5.17,9.34,6.68l-.13,1.52c-5.17-.13-14-.38-20.18-.38-7.07,0-17.91.25-22.2.38l-.13-1.52A22.78,22.78,0,0,0,292,201.94Z"/><path class="cls-2" d="M332,201.94a34.82,34.82,0,0,0,6.56-7.94c3.91-5.93,10.72-19.18,18-35.07l12.36-27c1.89-4.79,4.16-11,5.55-15l1.89-.12c3.91,9.2,7.82,18.16,11.86,27.12,7.7,17.28,17.66,39.23,23.34,48.31,3.91,6.31,8.7,12,14.25,13.5l-.12,1.64c-2.28,0-12.37-.25-19.94-.25-5,0-14,.25-20.81.25l-.13-1.52c4.67-1.13,9.34-4.16,10.35-8.45-.13-3-1-6.18-2.52-10.34s-3.41-8.2-5.3-12.49c-4.67-.13-10.09-.13-16.15-.13-6.31,0-12.36,0-16.9.13-2.53,6.94-3.66,12.62-3.66,17.16a14.5,14.5,0,0,0,4,10.47,16.24,16.24,0,0,0,6.05,3.65l-.13,1.52c-5.17,0-14-.25-19.93-.25-4.28,0-10.84.12-14.63.25l-.13-1.52A24.33,24.33,0,0,0,332,201.94Zm53.61-31.28c-4.92-11.1-9.59-21.19-14.88-32.42h-.38l-10.22,22.2c-1.77,3.79-3.28,7.32-4.42,10.22,3.92.25,10.35.25,15.52.25S381.2,170.91,385.61,170.66Z"/><path class="cls-2" d="M431.4,200.05c2.65-3.15,5.3-7.82,6.18-18.79s.88-22.21.88-35.32c0-10.35-3.4-16.78-7.57-20.31a24.68,24.68,0,0,0-10.72-5.3l.13-1.52c3.91.13,9.08.26,13.75.26,4.29,0,7.44-.26,9.58-.26a10.27,10.27,0,0,1,2.91.38c17.66,21.95,37.59,43.4,57.26,65.09a159.08,159.08,0,0,0,.64-16.27c0-8.2-.26-12.74-.51-17.41-.38-7.82-2.52-15.89-4.92-20.18a21.09,21.09,0,0,0-13-10.09l.12-1.52c4.55,0,13.63.38,19.3.38,5.93,0,14.39-.25,18-.38l.13,1.52c-4.29,1.26-7.7,4.67-9.46,7.06a26.29,26.29,0,0,0-3.91,9.09A72.27,72.27,0,0,0,508.6,150c-.25,3.53-.25,11.61-.25,20.44V189c0,6.94.25,14,.63,20.06l-2.4.38c-20.44-24.1-44.78-51.85-63.32-71.78h-.38c-.38,5.17-.51,11.23-.51,15.26,0,6.06.13,13.12.38,20.94.51,17.41,3.28,22.46,6.81,26.12a23.49,23.49,0,0,0,10.85,5.92l-.13,1.52c-2.52,0-13.37-.38-20-.38-5.68,0-13.63.38-16.65.38l-.13-1.52A18.61,18.61,0,0,0,431.4,200.05Z"/><path class="cls-2" d="M551.36,201.94a35.08,35.08,0,0,0,6.56-7.94c3.91-5.93,10.72-19.18,18-35.07l12.36-27c1.89-4.79,4.16-11,5.55-15l1.89-.12c3.91,9.2,7.82,18.16,11.86,27.12,7.69,17.28,17.66,39.23,23.34,48.31,3.91,6.31,8.7,12,14.25,13.5l-.13,1.64c-2.27,0-12.36-.25-19.93-.25-5,0-14,.25-20.81.25l-.13-1.52c4.67-1.13,9.34-4.16,10.35-8.45-.13-3-1-6.18-2.53-10.34s-3.4-8.2-5.29-12.49c-4.67-.13-10.1-.13-16.15-.13-6.31,0-12.36,0-16.9.13-2.53,6.94-3.66,12.62-3.66,17.16a14.54,14.54,0,0,0,4,10.47,16.27,16.27,0,0,0,6.06,3.65l-.13,1.52c-5.17,0-14-.25-19.93-.25-4.29,0-10.85.12-14.63.25l-.13-1.52A24.33,24.33,0,0,0,551.36,201.94ZM605,170.66c-4.92-11.1-9.59-21.19-14.89-32.42h-.37l-10.22,22.2c-1.77,3.79-3.28,7.32-4.42,10.22,3.91.25,10.35.25,15.52.25S600.55,170.91,605,170.66Z"/><path class="cls-2" d="M653.28,199.93c2.52-3.16,3.66-8.58,4-14.89.25-3.28.5-10.34.5-15v-10c0-18-.25-28-3.78-33s-8.58-6.05-11.86-6.68l.12-1.52c5.05,0,14.39.38,21.58.38,6.93,0,17.66-.25,23.33-.38l.13,1.52c-8.58,1.89-12.24,5.8-13.63,10.72-1.26,4.42-1.38,13.12-1.38,25.23v9.21c0,7.57,0,16.14.63,23.46s2.39,10.34,5.8,12.61c3,2,7.07,2.78,11.35,2.78a45.66,45.66,0,0,0,14.64-7.69,49.14,49.14,0,0,0,12-14l1.64.26c-1.51,8.57-2.65,17.91-4,24.22-1.76.12-6.68.25-9.21.25-13.62,0-30.27-.25-41-.25-7.07,0-16.65.12-21.19.25l-.13-1.52C645.84,205.35,650.76,203.08,653.28,199.93Z"/><path class="cls-2" d="M742.71,207c-5,0-15,.25-21.19.38l-.13-1.52c7.82-1.89,11.61-6,13.25-12.11s1.76-21.57,1.76-31.41-.25-18.54-.75-25.1S733.5,127,730.1,124.36s-8.33-3.65-10.6-4l.13-1.52c4.29.26,14.88.38,20.31.38,4.66,0,14-.38,20.43-.38,10.72,0,20.19.89,27.38,6.19,5.8,4.28,7.69,8.7,7.69,15,0,4.79-2,8.45-4.92,11.6a37.91,37.91,0,0,1-12.74,8.45,28.9,28.9,0,0,1,14.25,5.3,18.58,18.58,0,0,1,7.83,15.39,24.29,24.29,0,0,1-9.34,19.3c-6.18,4.8-14.88,7.44-24.6,7.44C761.13,207.49,749.65,207,742.71,207Zm30.91-48.06c4.16-4.16,6-9.46,6-15.64a21.38,21.38,0,0,0-11-18.42,24.92,24.92,0,0,0-9.72-3.15,23.3,23.3,0,0,0-6.18.75c-.25.76-.75,2.9-1.13,8.58q-.57,6.44-.76,28A56,56,0,0,0,763,160.19,38.42,38.42,0,0,0,773.62,158.93ZM777.53,199c3.53-3.53,5.8-9.58,5.8-15.51s-1.89-10.6-5.55-13.88a23.87,23.87,0,0,0-14.25-6.05,122.51,122.51,0,0,1-12.62-.63v11.47a121.3,121.3,0,0,0,1.39,19.3c.76,4.29,1.89,5.43,3.41,6.94,2.27,2.27,5.92,3.53,9.71,3.66A19,19,0,0,0,777.53,199Z"/><path class="cls-2" d="M806.41,201.94A34.56,34.56,0,0,0,813,194c3.91-5.93,10.73-19.18,18-35.07l12.36-27c1.9-4.79,4.17-11,5.55-15l1.9-.12c3.91,9.2,7.82,18.16,11.85,27.12,7.7,17.28,17.66,39.23,23.34,48.31,3.91,6.31,8.7,12,14.25,13.5l-.12,1.64c-2.27,0-12.36-.25-19.93-.25-5.05,0-14,.25-20.82.25l-.12-1.52c4.67-1.13,9.33-4.16,10.34-8.45-.12-3-1-6.18-2.52-10.34s-3.41-8.2-5.3-12.49c-4.67-.13-10.09-.13-16.15-.13-6.3,0-12.36,0-16.9.13-2.52,6.94-3.66,12.62-3.66,17.16a14.5,14.5,0,0,0,4,10.47,16.32,16.32,0,0,0,6,3.65l-.12,1.52c-5.17,0-14-.25-19.93-.25-4.29,0-10.85.12-14.64.25l-.12-1.52A24.49,24.49,0,0,0,806.41,201.94ZM860,170.66c-4.91-11.1-9.58-21.19-14.88-32.42h-.38l-10.22,22.2c-1.76,3.79-3.28,7.32-4.41,10.22,3.91.25,10.34.25,15.51.25S855.61,170.91,860,170.66Z"/><path class="cls-2" d="M926.25,163.22c8.2-13.88,16.14-27.75,22.58-40.62-1.14-.13-3.54-.25-6.56-.25a87.43,87.43,0,0,0-13.25.75,40.81,40.81,0,0,0-12.23,6.56,55.31,55.31,0,0,0-11.61,13.25l-1.64-.25c1.14-8.2,2.4-17.16,3.53-23.47a105.25,105.25,0,0,1,11.48-.38c12.49,0,25.48.38,33.81.38,5.55,0,11.73-.12,16.78-.12l.12,1.51c-9.33,13.5-20.81,32.67-29.89,47.94-8.33,14-14.26,24.34-19.81,34.68a98.66,98.66,0,0,0,12,.76c4.8,0,10.73,0,14.51-.76a45.53,45.53,0,0,0,11.86-6.81,51.63,51.63,0,0,0,11.6-13.75l1.64.26c-1.51,7.82-2.27,16.27-4,24.22-1.77.12-7.7.25-13.12.25-6.31,0-17.41-.13-27.63-.13h-8.58c-5.29,0-14.25,0-18.41.13l-.13-1.39C908.59,192.48,917.67,177.72,926.25,163.22Z"/><path class="cls-2" d="M983.77,201.94c3.15-2.39,4.79-6.81,5.42-10.47.63-3.4,1.26-11,1.26-30s-.12-29.26-3.78-34.44-8.58-6.05-11.86-6.68l.13-1.52c5,0,14.38.38,21.57.38,6.93,0,15.76-.25,21.44-.38l.13,1.52c-6.81,1.51-10.35,5.42-11.73,10.34-1.27,4.42-1.39,13.63-1.39,30.28,0,24.09.5,32.79,3.66,38.22,1.89,3.15,4.79,5.17,9.33,6.68l-.12,1.52c-5.18-.13-14-.38-20.19-.38-7.06,0-17.91.25-22.2.38l-.13-1.52A22.84,22.84,0,0,0,983.77,201.94Z"/></g></g></svg>